<svg version="1.1" id="Layer_1" xmlns="http://www.w3.org/2000/svg" xmlns:xlink="http://www.w3.org/1999/xlink" x="0px" y="0px"
	 width="100%" viewBox="0 0 1128 288" enable-background="new 0 0 1128 288" xml:space="preserve">
<path fill="#FEFEFE" opacity="1.000000" stroke="none" 
	d="
M737.000000,289.000000 
	C491.333344,289.000000 246.166672,289.000000 1.000000,289.000000 
	C1.000000,193.000000 1.000000,97.000000 1.000000,1.000000 
	C377.000000,1.000000 753.000000,1.000000 1129.000000,1.000000 
	C1129.000000,97.000000 1129.000000,193.000000 1129.000000,289.000000 
	C998.500000,289.000000 868.000000,289.000000 737.000000,289.000000 
M90.278275,90.896515 
	C88.593681,91.646927 86.408554,93.441002 85.331566,92.924477 
	C83.265236,91.933487 81.204620,89.908600 80.270790,87.810158 
	C78.749146,84.390862 78.505882,80.412415 77.055542,76.949532 
	C74.348839,70.486908 70.856049,64.348289 68.245628,57.851734 
	C63.917439,47.080173 59.987949,36.147018 55.981770,25.248390 
	C54.908165,22.327705 53.203518,20.406029 49.969112,20.226847 
	C37.504757,19.536339 25.043535,18.741390 12.569821,18.323124 
	C10.849725,18.265446 9.065990,20.105595 7.311718,21.067127 
	C8.379674,22.924370 9.006665,25.495270 10.610043,26.485987 
	C13.674636,28.379581 17.315193,29.326254 20.678864,30.755018 
	C23.671038,32.025982 26.241890,33.536720 26.190550,37.517403 
	C25.836081,65.001564 25.806532,92.492073 25.190672,119.969734 
	C24.911531,132.423996 24.412064,132.408554 12.038995,133.005142 
	C11.214776,133.044891 10.317016,133.042175 9.590413,133.366257 
	C6.489382,134.749390 4.337005,136.795502 4.706164,140.610199 
	C5.054855,144.213394 7.790183,144.886917 10.432175,144.856705 
	C24.741278,144.693008 39.053925,144.454636 53.349846,143.865601 
	C56.035259,143.754959 60.002884,143.177780 59.755909,139.039047 
	C59.519268,135.073456 56.084023,134.387817 52.796745,134.063980 
	C52.134956,133.998779 51.465164,134.014084 50.799011,133.994003 
	C42.358967,133.739395 39.881226,131.667603 39.115166,123.233658 
	C38.332630,114.618332 37.742706,105.969635 37.511211,97.323700 
	C37.127918,83.008453 37.055199,68.683876 36.999352,54.362652 
	C36.994461,53.108135 38.081593,51.849361 38.661503,50.592564 
	C39.860657,51.349861 41.349617,51.876373 42.184013,52.924145 
	C43.178493,54.172935 43.682037,55.841473 44.275795,57.375565 
	C46.720856,63.692852 48.959526,70.094917 51.569023,76.342628 
	C56.733250,88.706924 62.234165,100.931694 67.316391,113.328720 
	C70.147369,120.234314 72.327766,127.404022 74.984329,134.385071 
	C75.955345,136.936752 77.108421,140.653900 80.558403,139.348145 
	C82.797958,138.500534 84.854843,135.520187 85.739830,133.046814 
	C88.629478,124.970810 90.763290,116.627785 93.517883,108.499321 
	C98.984360,92.368385 104.718178,76.328232 110.237854,60.215042 
	C111.871262,55.446747 116.675812,50.836716 121.100945,50.533829 
	C121.198990,51.833519 121.439949,53.142658 121.374176,54.436203 
	C120.233063,76.882095 118.999283,99.323402 117.909195,121.771706 
	C117.435699,131.522385 117.561630,131.526306 107.894524,134.204086 
	C107.253906,134.381531 106.647774,134.703232 106.000580,134.833817 
	C103.139923,135.410950 101.008621,137.074554 102.234894,139.961380 
	C103.108818,142.018723 105.258545,144.380066 107.277405,144.898590 
	C110.019150,145.602814 113.238976,144.975327 116.149841,144.396469 
	C126.726578,142.293152 137.230927,141.872498 147.787628,144.560593 
	C150.505951,145.252747 153.396698,145.612915 156.196655,145.555969 
	C160.119736,145.476212 163.117355,143.347748 163.315231,139.305130 
	C163.515244,135.218796 160.186890,134.305710 156.793381,134.020920 
	C148.489639,133.323990 147.043320,132.523911 146.969925,124.305527 
	C146.693390,93.344742 146.858917,62.380005 146.858917,31.235123 
	C149.293121,30.413742 151.478333,29.735296 153.619461,28.938448 
	C156.094803,28.017225 158.688217,27.251829 160.920609,25.905251 
	C162.092575,25.198317 163.363953,23.279285 163.188721,22.119360 
	C163.027115,21.049475 161.107819,19.795841 159.754944,19.459875 
	C157.696503,18.948698 155.458862,19.082037 153.297028,19.077171 
	C141.318405,19.050205 129.339691,19.064253 116.531113,19.064253 
	C107.724930,43.270321 99.195671,66.715164 90.278275,90.896515 
M319.177368,104.188217 
	C319.177368,87.247345 319.177368,70.306473 319.177368,53.380974 
	C324.907501,52.927326 330.364807,52.664028 335.773224,52.001373 
	C338.829163,51.626942 341.944672,50.459839 341.590302,46.522213 
	C341.209656,42.292736 337.970947,41.919003 334.557648,42.153290 
	C331.410675,42.369305 328.259613,42.739086 325.114105,42.703823 
	C321.892365,42.667706 319.952087,41.261684 319.921875,37.519405 
	C319.878967,32.203705 319.323547,26.893209 319.031281,21.578062 
	C318.853729,18.349115 318.860504,15.191025 314.510040,14.485111 
	C310.065735,13.763981 306.962585,15.118279 305.507568,19.479536 
	C304.616089,22.151527 303.806366,24.863102 303.169861,27.605616 
	C300.972015,37.074772 287.434937,45.806038 277.731201,44.931507 
	C265.354614,43.816086 252.899704,43.465679 240.469345,43.157089 
	C238.509552,43.108437 236.501114,45.019119 234.515167,46.023880 
	C236.102509,47.963078 237.582520,50.008442 239.337143,51.782162 
	C239.927292,52.378735 241.212311,52.300148 242.185272,52.503647 
	C246.165054,53.336056 247.719040,55.879318 247.227112,59.773354 
	C246.998840,61.580349 246.790771,63.430000 246.230652,65.148552 
	C242.123322,77.750801 237.988312,90.344986 233.696533,102.885071 
	C233.074066,104.703880 231.790939,106.450226 230.395721,107.797394 
	C229.451721,108.708878 227.572632,109.509262 226.485367,109.168236 
	C225.447174,108.842598 224.653732,107.061546 224.184753,105.764091 
	C223.573990,104.074455 223.673096,102.109741 222.974991,100.473152 
	C218.635620,90.300209 214.129364,80.198593 209.747635,70.043472 
	C208.634323,67.463264 207.541580,64.834541 206.838882,62.124516 
	C205.025528,55.131104 206.061020,53.783318 212.828369,51.087772 
	C214.779449,50.310623 216.077606,47.894234 217.675110,46.229389 
	C215.962021,45.256477 214.251038,43.446594 212.535522,43.442295 
	C198.057159,43.406017 183.575867,43.623062 169.102386,44.018066 
	C167.721878,44.055740 165.412750,45.711151 165.283905,46.818981 
	C165.127808,48.161049 166.539154,50.630043 167.782593,51.031792 
	C174.225037,53.113297 177.219193,58.476761 179.747101,63.770428 
	C190.258209,85.781601 200.229141,108.050392 210.698883,130.081818 
	C215.621307,140.440079 215.237549,149.890823 208.835846,159.572861 
	C204.560654,166.038712 201.058640,173.083725 197.891571,180.173737 
	C196.915558,182.358719 197.163025,186.599091 198.650909,188.043442 
	C201.278183,190.593887 205.419800,190.134949 208.113708,187.349274 
	C210.476364,184.906082 212.693909,181.970810 213.918381,178.839493 
	C219.292053,165.097427 224.056168,151.116394 229.461319,137.387375 
	C238.735840,113.830124 248.628815,90.512321 257.629944,66.853477 
	C261.225525,57.402725 268.080933,52.667477 276.826843,49.628304 
	C283.588318,47.278713 289.829437,51.802071 290.054993,59.032322 
	C290.210815,64.025986 290.221008,69.024277 290.287811,74.020622 
	C290.476990,88.167793 290.045135,102.358315 291.034637,116.449142 
	C291.896057,128.716675 298.902191,137.798813 309.796295,143.482361 
	C318.372498,147.956650 331.411316,146.417694 337.405792,140.283051 
	C338.816498,138.839355 339.060730,136.255814 339.841583,134.196655 
	C337.960144,133.644287 336.106567,132.925613 334.186462,132.603989 
	C333.093323,132.420883 331.894348,132.908279 330.738220,133.056259 
	C322.904846,134.058914 320.797913,132.500031 320.152893,124.581169 
	C319.626068,118.113747 319.488434,111.614639 319.177368,104.188217 
M959.092651,52.601311 
	C956.638184,54.968266 954.183777,57.335220 950.888184,60.513348 
	C950.268311,55.751522 949.836487,52.174549 949.331665,48.607910 
	C948.107239,39.956890 946.153564,39.202599 938.279419,42.966347 
	C932.220520,45.862408 925.703064,47.784355 919.497559,50.396156 
	C917.113953,51.399380 914.707947,52.784733 912.877808,54.574429 
	C909.351929,58.022346 910.279907,60.793232 914.979919,61.921955 
	C921.536804,63.496586 925.024597,66.414841 924.955994,73.006630 
	C924.776367,90.269791 923.754517,107.523041 923.178406,124.783913 
	C923.006409,129.937958 920.980286,133.196609 915.658936,134.339508 
	C911.948730,135.136353 909.873718,137.876801 910.497131,141.663727 
	C911.128479,145.498749 914.585205,145.210190 917.303955,144.870193 
	C930.569031,143.211441 943.799500,142.563660 957.022461,145.168396 
	C960.499756,145.853394 962.987427,144.055267 962.976379,140.940994 
	C962.969055,138.882080 961.151733,136.119537 959.325867,134.945206 
	C956.655457,133.227631 953.250793,132.651764 950.005310,131.536423 
	C950.005310,112.402290 949.994812,93.423775 950.037231,74.445366 
	C950.039246,73.530914 950.207092,72.255348 950.804932,71.759331 
	C957.278564,66.388428 963.305298,60.156990 970.545776,56.117226 
	C978.838318,51.490448 985.481079,55.870365 985.597595,65.292694 
	C985.875305,87.751511 985.687134,110.216087 985.687134,132.316727 
	C982.521912,133.359558 979.720825,133.488098 978.304626,134.954346 
	C976.613708,136.704926 975.760986,139.541702 975.335999,142.042374 
	C975.230713,142.662384 978.163452,144.556671 979.721069,144.582703 
	C993.521057,144.813416 1007.325867,144.787964 1021.129089,144.750931 
	C1023.501282,144.744568 1026.527222,145.340454 1026.896851,141.654984 
	C1027.231323,138.320969 1026.897095,135.182571 1022.619019,134.533646 
	C1015.999634,133.529556 1013.414917,128.984940 1013.063477,122.993721 
	C1012.625732,115.532593 1012.580444,108.046120 1012.462708,100.569069 
	C1012.282043,89.101830 1013.278137,77.485870 1011.758057,66.204796 
	C1010.081177,53.760677 1004.419983,40.436211 986.252625,42.961727 
	C984.455078,43.211597 982.547668,43.257107 980.768005,42.951122 
	C971.682861,41.389156 964.604553,44.313667 959.092651,52.601311 
M372.855225,47.253433 
	C371.146912,48.276493 369.411560,49.257267 367.734802,50.329666 
	C358.690033,56.114429 354.567505,64.097992 356.601410,71.827072 
	C358.538361,79.187485 364.968872,81.844337 371.670258,78.131859 
	C377.072052,75.139366 379.109802,69.984306 381.073975,64.563347 
	C382.344757,61.056049 383.949768,57.431633 386.304169,54.609917 
	C390.014679,50.162903 395.346069,49.202793 400.872131,50.526260 
	C406.323181,51.831772 408.633148,56.066700 409.178314,61.163563 
	C409.808716,67.057266 409.930573,73.005371 410.276337,78.983856 
	C407.581573,79.733627 405.526886,80.374153 403.438721,80.875290 
	C388.197510,84.533134 373.645844,89.745056 360.595276,98.745163 
	C351.468872,105.039024 349.443726,114.005280 350.365051,124.121292 
	C351.304413,134.435242 357.446777,140.875031 367.001251,143.732758 
	C379.471252,147.462540 391.624878,148.520966 401.129852,136.709503 
	C403.145233,134.205048 405.993073,132.370453 409.385254,129.420227 
	C409.644409,133.014175 409.926605,135.424072 409.972656,137.838440 
	C410.133667,146.277939 411.885986,147.824524 419.892731,144.980698 
	C428.467041,141.935303 436.838287,138.291382 445.181274,134.641541 
	C447.098297,133.802902 448.538116,131.873459 451.002899,129.753220 
	C448.182251,128.421707 446.527557,127.346519 444.714081,126.841698 
	C439.976105,125.522774 437.379150,122.538460 436.861298,117.689896 
	C436.543945,114.718346 436.040497,111.749626 435.971008,108.771461 
	C435.590637,92.463158 435.331970,76.152039 434.986816,59.842838 
	C434.955933,58.384064 435.149109,56.255913 434.316010,55.586746 
	C428.953094,51.278889 423.877106,45.261127 417.689148,43.603191 
	C402.939331,39.651279 387.753448,39.316711 372.855225,47.253433 
M869.476990,143.017548 
	C882.134094,136.214157 892.073608,127.603554 898.134338,113.527740 
	C906.441345,94.235115 899.470642,60.128956 878.179321,48.130539 
	C863.153931,39.663193 834.152161,39.022106 819.353149,56.578690 
	C806.391907,71.955078 803.745117,89.378288 808.042664,108.457031 
	C814.065552,135.195419 843.237427,151.985992 869.476990,143.017548 
M529.254089,134.262177 
	C541.017944,144.243774 554.471680,148.725555 569.514587,144.373520 
	C587.238464,139.245834 598.069275,126.907402 603.850464,109.413559 
	C610.886719,88.122101 605.312378,70.143967 590.516357,54.504261 
	C581.775818,45.265320 569.757874,40.215809 557.844666,40.638096 
	C532.623413,41.532116 509.270294,65.915894 511.880737,90.104355 
	C512.182373,92.899147 512.040161,95.760445 511.901733,98.580994 
	C511.176331,113.358871 517.539551,124.713806 529.254089,134.262177 
M1039.693848,68.203117 
	C1033.057129,82.038589 1032.546753,96.460510 1036.122803,111.072762 
	C1041.579834,133.370941 1068.496338,146.671997 1084.371338,146.562836 
	C1098.906250,146.462891 1109.617920,139.348251 1118.130615,128.326477 
	C1119.221313,126.914124 1119.859131,123.622215 1119.016357,122.613556 
	C1117.824829,121.187782 1114.592529,119.982330 1113.063354,120.633507 
	C1109.894409,121.982857 1106.562988,124.093521 1104.552368,126.816879 
	C1096.786987,137.334549 1076.213013,138.351379 1069.299927,127.315804 
	C1064.841675,120.198997 1062.802124,111.544098 1059.858643,103.512482 
	C1058.670776,100.271088 1060.142090,98.454613 1063.617676,98.309845 
	C1066.944214,98.171288 1070.268921,97.879250 1073.595337,97.866524 
	C1085.087769,97.822556 1096.584839,98.070160 1108.071899,97.823746 
	C1117.931396,97.612251 1124.841675,90.991547 1123.796387,81.779999 
	C1120.845215,55.774982 1103.024780,40.390652 1077.606079,41.704952 
	C1060.213989,42.604229 1047.986450,52.289616 1039.693848,68.203117 
M790.989441,129.594467 
	C791.675903,126.684441 792.823303,123.787651 792.907471,120.860306 
	C792.978638,118.383629 792.610718,114.654999 791.037292,113.630783 
	C787.853210,111.558075 784.213501,113.052338 781.858704,116.120110 
	C780.049438,118.477150 778.436829,121.052376 777.149780,123.729172 
	C774.382446,129.484207 769.905884,132.768005 763.645508,133.338089 
	C757.853271,133.865555 752.024658,134.198151 746.210449,134.221420 
	C740.389221,134.244736 739.028687,131.988174 741.842468,126.729660 
	C744.026306,122.648468 746.921814,118.950401 749.468689,115.060928 
	C763.943726,92.955811 776.933472,69.875252 792.982788,48.800415 
	C793.630371,47.950138 793.746765,46.695404 794.517517,44.437134 
	C768.080444,41.454388 742.101807,42.553890 716.412720,41.935776 
	C714.232178,49.630653 711.926331,56.724377 710.271484,63.966824 
	C709.130493,68.960159 711.341064,71.147713 715.873718,69.112930 
	C719.500122,67.485016 722.317200,63.948921 725.329712,61.087334 
	C728.627380,57.954823 731.285461,52.662334 735.025696,51.801315 
	C742.137207,50.164246 749.820679,50.890457 757.266663,50.889420 
	C760.139343,50.889019 760.951111,52.965977 760.008240,55.445850 
	C759.311584,57.278473 758.284180,59.017990 757.201172,60.665573 
	C752.100586,68.424995 746.999023,76.185478 741.769592,83.858192 
	C731.326904,99.179703 720.988464,114.578163 710.229980,129.676178 
	C704.758911,137.354095 706.080139,141.875381 715.217651,143.548401 
	C716.523621,143.787506 717.862305,143.960815 719.186890,143.967514 
	C737.479919,144.060074 755.773376,144.186508 774.066223,144.133987 
	C778.357056,144.121674 783.935791,144.981064 786.584900,142.711502 
	C789.418579,140.283859 789.489807,134.631805 790.989441,129.594467 
M678.484741,62.686012 
	C679.722900,63.493008 681.055237,64.187149 682.182373,65.127228 
	C686.276062,68.541595 689.977112,68.846817 694.422302,66.006119 
	C698.683411,63.283047 700.744690,57.706532 699.447876,52.410126 
	C697.986145,46.440735 693.369507,42.375839 687.575928,42.078541 
	C675.511414,41.459442 665.818420,45.675068 658.962524,55.944038 
	C656.956543,58.948742 654.449219,61.618740 651.728699,64.991272 
	C648.730957,59.326965 650.730103,55.373287 652.667419,51.595131 
	C654.475525,48.069141 654.199585,44.711170 651.082886,42.793015 
	C649.174805,41.618645 645.815735,41.620316 643.570740,42.409519 
	C638.131775,44.321564 633.039062,47.197716 627.654663,49.294559 
	C624.922119,50.358669 621.362793,49.843094 619.087524,51.384933 
	C616.813782,52.925671 615.676086,56.142693 614.040344,58.624870 
	C616.151001,59.770432 618.158875,61.573521 620.393982,61.922642 
	C624.843567,62.617683 627.425232,64.274002 627.285950,69.193169 
	C626.749512,88.135017 626.383545,107.081764 625.821655,126.022758 
	C625.688416,130.512390 623.564209,133.640213 618.585083,133.830460 
	C614.739868,133.977417 613.808289,136.220688 614.345581,139.555405 
	C614.606323,141.173920 614.943848,142.780045 615.301392,144.682983 
	C632.833435,144.682983 650.257324,144.682983 667.938660,144.682983 
	C667.938660,142.419312 668.452209,140.108627 667.782715,138.216568 
	C667.205750,136.586075 665.335815,134.331284 663.942444,134.261810 
	C658.386963,133.984863 656.008057,130.852478 655.951172,125.988579 
	C655.756897,109.370789 655.119629,92.705025 656.105774,76.144165 
	C656.835388,63.890663 665.808655,58.931229 678.484741,62.686012 
M463.997894,112.500000 
	C463.997894,123.598099 463.997894,134.696198 463.997894,147.334747 
	C476.043396,144.352997 487.226807,141.738342 498.275391,138.642487 
	C499.561676,138.282074 501.100098,135.019455 500.742035,133.530243 
	C500.266937,131.554230 498.268402,128.818802 496.525421,128.483383 
	C491.196167,127.457809 489.212738,124.207741 488.973572,119.456703 
	C488.505371,110.153870 487.999603,100.840172 487.979370,91.529953 
	C487.919647,64.045509 488.083832,36.560547 488.176788,9.075848 
	C488.187195,6.001378 488.218262,2.903011 483.666504,4.653885 
	C474.277100,8.265617 464.828461,11.753747 455.622528,15.790704 
	C453.335724,16.793522 451.882111,19.696457 450.045532,21.725986 
	C451.968109,23.404854 453.627777,25.775087 455.865204,26.625937 
	C461.380219,28.723152 463.148895,32.332844 463.167023,38.068886 
	C463.244446,62.546555 463.687988,87.023064 463.997894,112.500000 
M1031.920410,245.387955 
	C1039.204224,237.551865 1036.599976,226.396973 1026.225708,222.589783 
	C1016.952576,219.186707 1007.241028,219.206726 997.686157,221.263214 
	C995.944641,221.638031 993.550232,224.563782 993.504456,226.364029 
	C993.069092,243.482941 992.827454,260.617035 993.098083,277.737762 
	C993.185425,283.261719 996.283936,285.509644 1001.999512,285.841400 
	C1006.316101,286.091949 1010.697205,286.258057 1014.982483,285.813995 
	C1024.821533,284.794373 1033.486572,281.531250 1037.983398,271.683624 
	C1040.772583,265.575348 1038.323975,258.039856 1032.568970,254.903961 
	C1026.838867,251.781616 1026.765625,251.214691 1031.920410,245.387955 
M578.089966,258.574463 
	C575.377991,255.902557 572.666016,253.230652 569.801697,250.408661 
	C570.741882,249.337463 571.522339,248.263504 572.482422,247.386047 
	C576.870728,243.375656 579.152588,238.722977 577.124878,232.712311 
	C575.036194,226.520798 570.769470,222.390472 564.351196,221.560730 
	C556.961426,220.605408 549.462708,220.355865 542.001648,220.150925 
	C538.693481,220.060059 536.178345,221.808411 536.171265,225.579742 
	C536.134094,245.291718 536.153931,265.003784 536.153931,284.925171 
	C545.464355,284.925171 553.419373,284.954498 561.373779,284.898926 
	C562.856201,284.888580 564.349670,284.608704 565.815247,284.332275 
	C577.237488,282.177704 584.025452,268.628082 578.089966,258.574463 
M918.183167,285.714813 
	C918.731201,284.597321 919.745483,283.484955 919.757874,282.361572 
	C919.971985,262.904144 920.035400,243.445114 920.205383,223.987076 
	C920.236694,220.403397 918.148376,219.798080 915.325745,220.146576 
	C910.718262,220.715485 908.043091,224.616470 908.311523,230.546036 
	C908.484253,234.362213 908.939209,238.165848 909.278076,241.974182 
	C909.520264,244.695953 908.510803,246.797516 905.643921,246.850281 
	C896.791870,247.013138 887.934998,246.909729 878.723267,246.909729 
	C878.723267,239.582611 878.725891,232.929062 878.722107,226.275513 
	C878.720337,223.119400 878.556335,220.017471 874.212219,220.083389 
	C870.500732,220.139679 868.124207,221.939438 868.119934,225.812851 
	C868.099426,244.263458 868.072388,262.715546 868.306885,281.163818 
	C868.357300,285.127472 873.096191,287.425964 876.340149,285.204712 
	C877.507568,284.405273 878.234863,282.212036 878.269775,280.635101 
	C878.455261,272.253784 878.356995,263.866241 878.356995,255.971283 
	C887.714355,255.971283 895.686340,255.966293 903.658325,255.973633 
	C907.073242,255.976776 908.989014,257.592896 908.856873,261.118011 
	C908.689026,265.598145 908.491882,270.080750 908.148071,274.550018 
	C907.425110,283.946472 907.948608,284.638458 918.183167,285.714813 
M1060.084595,279.411926 
	C1060.281372,281.107483 1059.919800,283.805695 1060.790649,284.290741 
	C1062.628418,285.314178 1065.579224,286.102203 1067.206055,285.276978 
	C1069.071899,284.330505 1070.637573,281.700897 1071.217163,279.507538 
	C1073.216675,271.941254 1078.154907,268.487640 1085.629517,268.203583 
	C1090.618652,268.014008 1095.630859,268.269562 1100.606201,267.933472 
	C1103.492798,267.738495 1104.637207,268.996552 1105.771729,271.358002 
	C1107.841309,275.665955 1109.913818,280.095764 1112.832520,283.808502 
	C1113.913696,285.183655 1117.646484,285.508484 1119.697876,284.847412 
	C1122.879639,283.822083 1122.682373,280.914185 1121.222046,278.212677 
	C1120.748657,277.337036 1120.302368,276.442352 1119.911011,275.527527 
	C1113.221191,259.888641 1106.783203,244.134262 1099.673828,228.688828 
	C1098.096924,225.262985 1094.522095,222.172287 1091.098633,220.516388 
	C1089.987915,219.979156 1085.922363,224.154266 1084.077759,226.783829 
	C1077.642822,235.957672 1076.252563,247.473404 1070.097290,256.977142 
	C1065.827148,263.570190 1063.479614,271.408356 1060.084595,279.411926 
M800.697144,238.184021 
	C795.599121,249.314743 790.443726,260.419800 785.440979,271.593231 
	C784.095337,274.598663 782.992676,277.755341 782.177856,280.944611 
	C781.275513,284.476196 783.265869,285.895020 786.587952,285.600281 
	C791.634033,285.152588 794.177124,282.047882 795.057739,277.291107 
	C795.955627,272.441406 798.209839,268.754608 803.658630,268.546234 
	C810.293213,268.292480 816.969116,267.967590 823.562134,268.491241 
	C825.486084,268.644104 827.559814,271.337250 828.899353,273.316437 
	C830.634216,275.879730 831.365906,279.132996 833.150391,281.648773 
	C835.025879,284.292786 837.616150,287.330231 841.348633,285.283508 
	C844.989624,283.286957 842.447693,279.984161 841.960999,277.219574 
	C841.877075,276.742706 841.580322,276.303284 841.381714,275.846619 
	C833.854980,258.536682 826.399292,241.195236 818.757690,223.936111 
	C816.501038,218.839355 811.261475,218.507355 808.289551,223.345978 
	C805.521362,227.852676 803.396973,232.754776 800.697144,238.184021 
M719.234314,239.211472 
	C719.582764,245.074814 722.742981,249.141220 727.629456,251.965454 
	C733.232910,255.204086 739.066406,258.063538 744.543335,261.496979 
	C750.515259,265.240692 750.401306,271.044800 744.701660,275.222076 
	C741.444031,277.609589 738.170532,277.843475 734.417114,276.349609 
	C730.750610,274.890320 726.932983,273.662659 723.068298,272.938171 
	C721.890015,272.717316 719.524475,274.215759 719.105164,275.416534 
	C717.790283,279.181976 721.040833,284.498993 725.021301,284.636993 
	C732.307068,284.889496 739.738525,285.172882 746.890259,284.049561 
	C757.131287,282.441071 763.025024,268.810028 758.092102,259.701263 
	C754.879822,253.769806 749.431641,250.897446 743.421753,248.448135 
	C739.195251,246.725647 734.916870,244.548172 731.477478,241.616699 
	C726.637817,237.491760 727.184204,235.224045 732.154419,231.424454 
	C735.934387,228.534729 739.869202,227.946732 744.348694,229.450790 
	C747.010315,230.344467 749.905029,231.541779 752.533447,231.232056 
	C754.776855,230.967667 757.501282,229.152466 758.601990,227.219711 
	C759.146423,226.263809 756.929077,222.417236 755.232178,221.759369 
	C750.820312,220.048950 746.043030,218.682648 741.343506,218.426025 
	C727.767944,217.684723 720.266541,224.703049 719.234314,239.211472 
M646.736145,239.223633 
	C649.164307,235.270660 651.559753,231.297073 654.031921,227.371841 
	C655.716614,224.696899 657.383728,221.323593 654.078979,219.623138 
	C652.329834,218.723190 647.999451,220.166183 646.505249,221.950531 
	C642.174561,227.122391 638.695496,233.006424 634.869324,238.602188 
	C632.997986,241.339050 631.098389,244.056610 628.667847,247.568695 
	C626.003235,243.138382 624.162048,239.807846 622.063110,236.648575 
	C618.677307,231.552490 615.431396,226.304688 611.477417,221.675293 
	C610.002686,219.948700 606.706665,219.777802 604.241089,218.897552 
	C603.574585,221.633087 602.607727,224.344803 602.388000,227.115768 
	C602.298828,228.240494 603.748047,229.565308 604.646851,230.678329 
	C614.581482,242.980927 625.100159,254.977798 624.439941,272.340912 
	C624.345825,274.818176 624.716675,277.327637 625.031433,279.801941 
	C625.346497,282.278900 625.668213,285.564758 629.033508,284.731903 
	C630.684326,284.323334 632.522400,281.478912 632.841431,279.505005 
	C633.660828,274.435974 633.416809,269.202209 634.101929,264.101990 
	C634.621582,260.233307 635.235168,256.104187 637.031738,252.746262 
	C639.514832,248.105255 643.149170,244.080200 646.736145,239.223633 
M951.901001,284.384369 
	C953.506531,284.790924 955.114197,285.189331 956.717163,285.605621 
	C960.417236,286.566437 961.949646,285.101135 961.955505,281.328796 
	C961.984619,262.683746 962.114380,244.038879 962.195068,225.393875 
	C962.205078,223.081573 962.497559,219.925827 959.201294,220.325928 
	C956.612976,220.640106 954.027039,222.386032 951.856506,224.041901 
	C950.977661,224.712357 950.991272,226.828400 950.961365,228.294022 
	C950.597839,246.103363 950.287598,263.913879 950.035706,281.725128 
	C950.024292,282.531219 950.698975,283.347015 951.901001,284.384369 
z"/>
<path fill="#202826" opacity="1.000000" stroke="none" 
	d="
M90.472343,90.528259 
	C99.195671,66.715164 107.724930,43.270321 116.531113,19.064253 
	C129.339691,19.064253 141.318405,19.050205 153.297028,19.077171 
	C155.458862,19.082037 157.696503,18.948698 159.754944,19.459875 
	C161.107819,19.795841 163.027115,21.049475 163.188721,22.119360 
	C163.363953,23.279285 162.092575,25.198317 160.920609,25.905251 
	C158.688217,27.251829 156.094803,28.017225 153.619461,28.938448 
	C151.478333,29.735296 149.293121,30.413742 146.858917,31.235123 
	C146.858917,62.380005 146.693390,93.344742 146.969925,124.305527 
	C147.043320,132.523911 148.489639,133.323990 156.793381,134.020920 
	C160.186890,134.305710 163.515244,135.218796 163.315231,139.305130 
	C163.117355,143.347748 160.119736,145.476212 156.196655,145.555969 
	C153.396698,145.612915 150.505951,145.252747 147.787628,144.560593 
	C137.230927,141.872498 126.726578,142.293152 116.149841,144.396469 
	C113.238976,144.975327 110.019150,145.602814 107.277405,144.898590 
	C105.258545,144.380066 103.108818,142.018723 102.234894,139.961380 
	C101.008621,137.074554 103.139923,135.410950 106.000580,134.833817 
	C106.647774,134.703232 107.253906,134.381531 107.894524,134.204086 
	C117.561630,131.526306 117.435699,131.522385 117.909195,121.771706 
	C118.999283,99.323402 120.233063,76.882095 121.374176,54.436203 
	C121.439949,53.142658 121.198990,51.833519 121.100945,50.533829 
	C116.675812,50.836716 111.871262,55.446747 110.237854,60.215042 
	C104.718178,76.328232 98.984360,92.368385 93.517883,108.499321 
	C90.763290,116.627785 88.629478,124.970810 85.739830,133.046814 
	C84.854843,135.520187 82.797958,138.500534 80.558403,139.348145 
	C77.108421,140.653900 75.955345,136.936752 74.984329,134.385071 
	C72.327766,127.404022 70.147369,120.234314 67.316391,113.328720 
	C62.234165,100.931694 56.733250,88.706924 51.569023,76.342628 
	C48.959526,70.094917 46.720856,63.692852 44.275795,57.375565 
	C43.682037,55.841473 43.178493,54.172935 42.184013,52.924145 
	C41.349617,51.876373 39.860657,51.349861 38.661503,50.592564 
	C38.081593,51.849361 36.994461,53.108135 36.999352,54.362652 
	C37.055199,68.683876 37.127918,83.008453 37.511211,97.323700 
	C37.742706,105.969635 38.332630,114.618332 39.115166,123.233658 
	C39.881226,131.667603 42.358967,133.739395 50.799011,133.994003 
	C51.465164,134.014084 52.134956,133.998779 52.796745,134.063980 
	C56.084023,134.387817 59.519268,135.073456 59.755909,139.039047 
	C60.002884,143.177780 56.035259,143.754959 53.349846,143.865601 
	C39.053925,144.454636 24.741278,144.693008 10.432175,144.856705 
	C7.790183,144.886917 5.054855,144.213394 4.706164,140.610199 
	C4.337005,136.795502 6.489382,134.749390 9.590413,133.366257 
	C10.317016,133.042175 11.214776,133.044891 12.038995,133.005142 
	C24.412064,132.408554 24.911531,132.423996 25.190672,119.969734 
	C25.806532,92.492073 25.836081,65.001564 26.190550,37.517403 
	C26.241890,33.536720 23.671038,32.025982 20.678864,30.755018 
	C17.315193,29.326254 13.674636,28.379581 10.610043,26.485987 
	C9.006665,25.495270 8.379674,22.924370 7.311718,21.067127 
	C9.065990,20.105595 10.849725,18.265446 12.569821,18.323124 
	C25.043535,18.741390 37.504757,19.536339 49.969112,20.226847 
	C53.203518,20.406029 54.908165,22.327705 55.981770,25.248390 
	C59.987949,36.147018 63.917439,47.080173 68.245628,57.851734 
	C70.856049,64.348289 74.348839,70.486908 77.055542,76.949532 
	C78.505882,80.412415 78.749146,84.390862 80.270790,87.810158 
	C81.204620,89.908600 83.265236,91.933487 85.331566,92.924477 
	C86.408554,93.441002 88.593681,91.646927 90.472343,90.528259 
z"/>
<path fill="#202826" opacity="1.000000" stroke="none" 
	d="
M319.177795,104.658897 
	C319.488434,111.614639 319.626068,118.113747 320.152893,124.581169 
	C320.797913,132.500031 322.904846,134.058914 330.738220,133.056259 
	C331.894348,132.908279 333.093323,132.420883 334.186462,132.603989 
	C336.106567,132.925613 337.960144,133.644287 339.841583,134.196655 
	C339.060730,136.255814 338.816498,138.839355 337.405792,140.283051 
	C331.411316,146.417694 318.372498,147.956650 309.796295,143.482361 
	C298.902191,137.798813 291.896057,128.716675 291.034637,116.449142 
	C290.045135,102.358315 290.476990,88.167793 290.287811,74.020622 
	C290.221008,69.024277 290.210815,64.025986 290.054993,59.032322 
	C289.829437,51.802071 283.588318,47.278713 276.826843,49.628304 
	C268.080933,52.667477 261.225525,57.402725 257.629944,66.853477 
	C248.628815,90.512321 238.735840,113.830124 229.461319,137.387375 
	C224.056168,151.116394 219.292053,165.097427 213.918381,178.839493 
	C212.693909,181.970810 210.476364,184.906082 208.113708,187.349274 
	C205.419800,190.134949 201.278183,190.593887 198.650909,188.043442 
	C197.163025,186.599091 196.915558,182.358719 197.891571,180.173737 
	C201.058640,173.083725 204.560654,166.038712 208.835846,159.572861 
	C215.237549,149.890823 215.621307,140.440079 210.698883,130.081818 
	C200.229141,108.050392 190.258209,85.781601 179.747101,63.770428 
	C177.219193,58.476761 174.225037,53.113297 167.782593,51.031792 
	C166.539154,50.630043 165.127808,48.161049 165.283905,46.818981 
	C165.412750,45.711151 167.721878,44.055740 169.102386,44.018066 
	C183.575867,43.623062 198.057159,43.406017 212.535522,43.442295 
	C214.251038,43.446594 215.962021,45.256477 217.675110,46.229385 
	C216.077606,47.894234 214.779449,50.310623 212.828369,51.087772 
	C206.061020,53.783318 205.025528,55.131104 206.838882,62.124516 
	C207.541580,64.834541 208.634323,67.463264 209.747635,70.043472 
	C214.129364,80.198593 218.635620,90.300209 222.974991,100.473152 
	C223.673096,102.109741 223.573990,104.074455 224.184753,105.764091 
	C224.653732,107.061546 225.447174,108.842598 226.485367,109.168236 
	C227.572632,109.509262 229.451721,108.708878 230.395721,107.797394 
	C231.790939,106.450226 233.074066,104.703880 233.696533,102.885071 
	C237.988312,90.344986 242.123322,77.750801 246.230652,65.148552 
	C246.790771,63.430000 246.998840,61.580349 247.227112,59.773354 
	C247.719040,55.879318 246.165054,53.336056 242.185272,52.503647 
	C241.212311,52.300148 239.927292,52.378735 239.337143,51.782162 
	C237.582520,50.008442 236.102509,47.963078 234.515167,46.023876 
	C236.501114,45.019119 238.509552,43.108437 240.469345,43.157089 
	C252.899704,43.465679 265.354614,43.816086 277.731201,44.931507 
	C287.434937,45.806038 300.972015,37.074772 303.169861,27.605616 
	C303.806366,24.863102 304.616089,22.151527 305.507568,19.479536 
	C306.962585,15.118279 310.065735,13.763981 314.510040,14.485111 
	C318.860504,15.191025 318.853729,18.349115 319.031281,21.578062 
	C319.323547,26.893209 319.878967,32.203705 319.921875,37.519405 
	C319.952087,41.261684 321.892365,42.667706 325.114105,42.703823 
	C328.259613,42.739086 331.410675,42.369305 334.557648,42.153290 
	C337.970947,41.919003 341.209656,42.292736 341.590302,46.522213 
	C341.944672,50.459839 338.829163,51.626942 335.773224,52.001373 
	C330.364807,52.664028 324.907501,52.927326 319.177368,53.380974 
	C319.177368,70.306473 319.177368,87.247345 319.177795,104.658897 
z"/>
<path fill="#1F2725" opacity="1.000000" stroke="none" 
	d="
M959.325928,52.332191 
	C964.604553,44.313667 971.682861,41.389156 980.768005,42.951122 
	C982.547668,43.257107 984.455078,43.211597 986.252625,42.961727 
	C1004.419983,40.436211 1010.081177,53.760677 1011.758057,66.204796 
	C1013.278137,77.485870 1012.282043,89.101830 1012.462708,100.569069 
	C1012.580444,108.046120 1012.625732,115.532593 1013.063477,122.993721 
	C1013.414917,128.984940 1015.999634,133.529556 1022.619019,134.533646 
	C1026.897095,135.182571 1027.231323,138.320969 1026.896851,141.654984 
	C1026.527222,145.340454 1023.501282,144.744568 1021.129089,144.750931 
	C1007.325867,144.787964 993.521057,144.813416 979.721069,144.582703 
	C978.163452,144.556671 975.230713,142.662384 975.335999,142.042374 
	C975.760986,139.541702 976.613708,136.704926 978.304626,134.954346 
	C979.720825,133.488098 982.521912,133.359558 985.687134,132.316727 
	C985.687134,110.216087 985.875305,87.751511 985.597595,65.292694 
	C985.481079,55.870365 978.838318,51.490448 970.545776,56.117226 
	C963.305298,60.156990 957.278564,66.388428 950.804932,71.759331 
	C950.207092,72.255348 950.039246,73.530914 950.037231,74.445366 
	C949.994812,93.423775 950.005310,112.402290 950.005310,131.536423 
	C953.250793,132.651764 956.655457,133.227631 959.325867,134.945206 
	C961.151733,136.119537 962.969055,138.882080 962.976379,140.940994 
	C962.987427,144.055267 960.499756,145.853394 957.022461,145.168396 
	C943.799500,142.563660 930.569031,143.211441 917.303955,144.870193 
	C914.585205,145.210190 911.128479,145.498749 910.497131,141.663727 
	C909.873718,137.876801 911.948730,135.136353 915.658936,134.339508 
	C920.980286,133.196609 923.006409,129.937958 923.178406,124.783913 
	C923.754517,107.523041 924.776367,90.269791 924.955994,73.006630 
	C925.024597,66.414841 921.536804,63.496586 914.979919,61.921955 
	C910.279907,60.793232 909.351929,58.022346 912.877808,54.574429 
	C914.707947,52.784733 917.113953,51.399380 919.497559,50.396156 
	C925.703064,47.784355 932.220520,45.862408 938.279419,42.966347 
	C946.153564,39.202599 948.107239,39.956890 949.331665,48.607910 
	C949.836487,52.174549 950.268311,55.751522 950.888184,60.513348 
	C954.183777,57.335220 956.638184,54.968266 959.325928,52.332191 
z"/>
<path fill="#202826" opacity="1.000000" stroke="none" 
	d="
M373.203064,47.114475 
	C387.753448,39.316711 402.939331,39.651279 417.689148,43.603191 
	C423.877106,45.261127 428.953094,51.278889 434.316010,55.586746 
	C435.149109,56.255913 434.955933,58.384064 434.986816,59.842838 
	C435.331970,76.152039 435.590637,92.463158 435.971008,108.771461 
	C436.040497,111.749626 436.543945,114.718346 436.861298,117.689896 
	C437.379150,122.538460 439.976105,125.522774 444.714081,126.841698 
	C446.527557,127.346519 448.182251,128.421707 451.002899,129.753220 
	C448.538116,131.873459 447.098297,133.802902 445.181274,134.641541 
	C436.838287,138.291382 428.467041,141.935303 419.892731,144.980698 
	C411.885986,147.824524 410.133667,146.277939 409.972656,137.838440 
	C409.926605,135.424072 409.644409,133.014175 409.385254,129.420227 
	C405.993073,132.370453 403.145233,134.205048 401.129852,136.709503 
	C391.624878,148.520966 379.471252,147.462540 367.001251,143.732758 
	C357.446777,140.875031 351.304413,134.435242 350.365051,124.121292 
	C349.443726,114.005280 351.468872,105.039024 360.595276,98.745163 
	C373.645844,89.745056 388.197510,84.533134 403.438721,80.875290 
	C405.526886,80.374153 407.581573,79.733627 410.276337,78.983856 
	C409.930573,73.005371 409.808716,67.057266 409.178314,61.163563 
	C408.633148,56.066700 406.323181,51.831772 400.872131,50.526260 
	C395.346069,49.202793 390.014679,50.162903 386.304169,54.609917 
	C383.949768,57.431633 382.344757,61.056049 381.073975,64.563347 
	C379.109802,69.984306 377.072052,75.139366 371.670258,78.131859 
	C364.968872,81.844337 358.538361,79.187485 356.601410,71.827072 
	C354.567505,64.097992 358.690033,56.114429 367.734802,50.329666 
	C369.411560,49.257267 371.146912,48.276493 373.203064,47.114475 
M376.723450,121.636711 
	C379.056885,133.956390 388.443939,137.120132 398.243530,129.441391 
	C407.466827,122.214226 412.569763,113.808456 409.623535,101.754921 
	C409.078278,99.524185 409.322968,97.112152 408.985504,94.815758 
	C408.593536,92.148262 407.961853,89.516006 407.146362,85.424179 
	C399.776703,89.712715 393.259644,92.939919 387.373962,97.067444 
	C379.295502,102.732742 376.045868,111.031700 376.723450,121.636711 
z"/>
<path fill="#1F2725" opacity="1.000000" stroke="none" 
	d="
M869.117676,143.170334 
	C843.237427,151.985992 814.065552,135.195419 808.042664,108.457031 
	C803.745117,89.378288 806.391907,71.955078 819.353149,56.578690 
	C834.152161,39.022106 863.153931,39.663193 878.179321,48.130539 
	C899.470642,60.128956 906.441345,94.235115 898.134338,113.527740 
	C892.073608,127.603554 882.134094,136.214157 869.117676,143.170334 
M848.344543,132.316132 
	C852.055359,133.331787 855.827332,135.355072 859.463013,135.134186 
	C865.367737,134.775421 870.699097,128.210403 870.899292,120.710098 
	C871.311279,105.274567 871.420471,89.795990 870.711243,74.378517 
	C870.280029,65.007477 865.373718,57.390789 857.195312,52.273094 
	C852.309204,49.215607 847.345581,49.285149 843.759216,53.682640 
	C840.811768,57.296627 838.158020,61.715797 837.085022,66.188545 
	C833.629761,80.590813 834.202087,95.186882 836.570740,109.766258 
	C837.970032,118.378899 840.846741,126.103386 848.344543,132.316132 
z"/>
<path fill="#1F2725" opacity="1.000000" stroke="none" 
	d="
M528.997803,134.014847 
	C517.539551,124.713806 511.176331,113.358871 511.901733,98.580994 
	C512.040161,95.760445 512.182373,92.899147 511.880737,90.104355 
	C509.270294,65.915894 532.623413,41.532116 557.844666,40.638096 
	C569.757874,40.215809 581.775818,45.265320 590.516357,54.504261 
	C605.312378,70.143967 610.886719,88.122101 603.850464,109.413559 
	C598.069275,126.907402 587.238464,139.245834 569.514587,144.373520 
	C554.471680,148.725555 541.017944,144.243774 528.997803,134.014847 
M539.498962,99.812698 
	C539.661560,101.131790 539.771851,102.459793 539.995056,103.768547 
	C541.680786,113.652397 543.665588,123.431023 551.029236,131.003784 
	C557.537842,137.697128 565.728271,137.636215 571.017212,130.045166 
	C573.944214,125.844048 576.666321,120.572365 576.943542,115.640648 
	C577.575134,104.404839 577.117432,93.040504 576.158997,81.808884 
	C575.618835,75.478279 573.997742,68.956764 571.428955,63.156570 
	C568.449036,56.427876 563.608582,50.279263 555.164368,50.531853 
	C548.272400,50.738007 542.365662,57.545410 541.182373,67.168777 
	C539.890808,77.672409 539.874512,88.332832 539.498962,99.812698 
z"/>
<path fill="#212927" opacity="1.000000" stroke="none" 
	d="
M1039.839355,67.859253 
	C1047.986450,52.289616 1060.213989,42.604229 1077.606079,41.704952 
	C1103.024780,40.390652 1120.845215,55.774982 1123.796387,81.779999 
	C1124.841675,90.991547 1117.931396,97.612251 1108.071899,97.823746 
	C1096.584839,98.070160 1085.087769,97.822556 1073.595337,97.866524 
	C1070.268921,97.879250 1066.944214,98.171288 1063.617676,98.309845 
	C1060.142090,98.454613 1058.670776,100.271088 1059.858643,103.512482 
	C1062.802124,111.544098 1064.841675,120.198997 1069.299927,127.315804 
	C1076.213013,138.351379 1096.786987,137.334549 1104.552368,126.816879 
	C1106.562988,124.093521 1109.894409,121.982857 1113.063354,120.633507 
	C1114.592529,119.982330 1117.824829,121.187782 1119.016357,122.613556 
	C1119.859131,123.622215 1119.221313,126.914124 1118.130615,128.326477 
	C1109.617920,139.348251 1098.906250,146.462891 1084.371338,146.562836 
	C1068.496338,146.671997 1041.579834,133.370941 1036.122803,111.072762 
	C1032.546753,96.460510 1033.057129,82.038589 1039.839355,67.859253 
M1082.448486,86.278084 
	C1086.745483,85.885406 1091.044067,85.507484 1095.339111,85.094978 
	C1098.315186,84.809158 1099.514893,83.075989 1098.687622,80.288506 
	C1096.571899,73.160622 1094.895020,65.821793 1091.957153,59.037231 
	C1087.290405,48.259407 1076.969849,47.251202 1069.537842,56.335339 
	C1064.025146,63.073475 1061.505981,71.110359 1059.530884,79.392197 
	C1058.510132,83.673233 1060.339722,85.837555 1064.520752,85.998619 
	C1070.163574,86.216003 1075.815063,86.205711 1082.448486,86.278084 
z"/>
<path fill="#202826" opacity="1.000000" stroke="none" 
	d="
M790.878113,129.990814 
	C789.489807,134.631805 789.418579,140.283859 786.584900,142.711502 
	C783.935791,144.981064 778.357056,144.121674 774.066223,144.133987 
	C755.773376,144.186508 737.479919,144.060074 719.186890,143.967514 
	C717.862305,143.960815 716.523621,143.787506 715.217651,143.548401 
	C706.080139,141.875381 704.758911,137.354095 710.229980,129.676178 
	C720.988464,114.578163 731.326904,99.179703 741.769592,83.858192 
	C746.999023,76.185478 752.100586,68.424995 757.201172,60.665573 
	C758.284180,59.017990 759.311584,57.278473 760.008240,55.445850 
	C760.951111,52.965977 760.139343,50.889019 757.266663,50.889420 
	C749.820679,50.890457 742.137207,50.164246 735.025696,51.801315 
	C731.285461,52.662334 728.627380,57.954823 725.329712,61.087334 
	C722.317200,63.948921 719.500122,67.485016 715.873718,69.112930 
	C711.341064,71.147713 709.130493,68.960159 710.271484,63.966824 
	C711.926331,56.724377 714.232178,49.630653 716.412720,41.935776 
	C742.101807,42.553890 768.080444,41.454388 794.517517,44.437134 
	C793.746765,46.695404 793.630371,47.950138 792.982788,48.800415 
	C776.933472,69.875252 763.943726,92.955811 749.468689,115.060928 
	C746.921814,118.950401 744.026306,122.648468 741.842468,126.729660 
	C739.028687,131.988174 740.389221,134.244736 746.210449,134.221420 
	C752.024658,134.198151 757.853271,133.865555 763.645508,133.338089 
	C769.905884,132.768005 774.382446,129.484207 777.149780,123.729172 
	C778.436829,121.052376 780.049438,118.477150 781.858704,116.120110 
	C784.213501,113.052338 787.853210,111.558075 791.037292,113.630783 
	C792.610718,114.654999 792.978638,118.383629 792.907471,120.860306 
	C792.823303,123.787651 791.675903,126.684441 790.878113,129.990814 
z"/>
<path fill="#1F2725" opacity="1.000000" stroke="none" 
	d="
M678.134949,62.498833 
	C665.808655,58.931229 656.835388,63.890663 656.105774,76.144165 
	C655.119629,92.705025 655.756897,109.370789 655.951172,125.988579 
	C656.008057,130.852478 658.386963,133.984863 663.942444,134.261810 
	C665.335815,134.331284 667.205750,136.586075 667.782715,138.216568 
	C668.452209,140.108627 667.938660,142.419312 667.938660,144.682983 
	C650.257324,144.682983 632.833435,144.682983 615.301392,144.682983 
	C614.943848,142.780045 614.606323,141.173920 614.345581,139.555405 
	C613.808289,136.220688 614.739868,133.977417 618.585083,133.830460 
	C623.564209,133.640213 625.688416,130.512390 625.821655,126.022758 
	C626.383545,107.081764 626.749512,88.135017 627.285950,69.193169 
	C627.425232,64.274002 624.843567,62.617683 620.393982,61.922642 
	C618.158875,61.573521 616.151001,59.770432 614.040344,58.624866 
	C615.676086,56.142693 616.813782,52.925671 619.087524,51.384933 
	C621.362793,49.843094 624.922119,50.358669 627.654663,49.294559 
	C633.039062,47.197716 638.131775,44.321564 643.570740,42.409519 
	C645.815735,41.620316 649.174805,41.618645 651.082886,42.793015 
	C654.199585,44.711170 654.475525,48.069141 652.667419,51.595131 
	C650.730103,55.373287 648.730957,59.326965 651.728699,64.991272 
	C654.449219,61.618740 656.956543,58.948742 658.962524,55.944038 
	C665.818420,45.675068 675.511414,41.459442 687.575928,42.078541 
	C693.369507,42.375839 697.986145,46.440735 699.447876,52.410126 
	C700.744690,57.706532 698.683411,63.283047 694.422302,66.006119 
	C689.977112,68.846817 686.276062,68.541595 682.182373,65.127228 
	C681.055237,64.187149 679.722900,63.493008 678.134949,62.498833 
z"/>
<path fill="#1E2524" opacity="1.000000" stroke="none" 
	d="
M463.997894,112.000000 
	C463.687988,87.023064 463.244446,62.546555 463.167023,38.068886 
	C463.148895,32.332844 461.380219,28.723152 455.865204,26.625937 
	C453.627777,25.775087 451.968109,23.404854 450.045532,21.725994 
	C451.882111,19.696457 453.335724,16.793522 455.622528,15.790704 
	C464.828461,11.753747 474.277100,8.265617 483.666504,4.653885 
	C488.218262,2.903011 488.187195,6.001378 488.176788,9.075848 
	C488.083832,36.560547 487.919647,64.045509 487.979370,91.529953 
	C487.999603,100.840172 488.505371,110.153870 488.973572,119.456703 
	C489.212738,124.207741 491.196167,127.457809 496.525421,128.483383 
	C498.268402,128.818802 500.266937,131.554230 500.742035,133.530243 
	C501.100098,135.019455 499.561676,138.282074 498.275391,138.642487 
	C487.226807,141.738342 476.043396,144.352997 463.997894,147.334747 
	C463.997894,134.696198 463.997894,123.598099 463.997894,112.000000 
z"/>
<path fill="#222A28" opacity="1.000000" stroke="none" 
	d="
M1031.662598,245.646790 
	C1026.765625,251.214691 1026.838867,251.781616 1032.568970,254.903961 
	C1038.323975,258.039856 1040.772583,265.575348 1037.983398,271.683624 
	C1033.486572,281.531250 1024.821533,284.794373 1014.982483,285.813995 
	C1010.697205,286.258057 1006.316101,286.091949 1001.999512,285.841400 
	C996.283936,285.509644 993.185425,283.261719 993.098083,277.737762 
	C992.827454,260.617035 993.069092,243.482941 993.504456,226.364029 
	C993.550232,224.563782 995.944641,221.638031 997.686157,221.263214 
	C1007.241028,219.206726 1016.952576,219.186707 1026.225708,222.589783 
	C1036.599976,226.396973 1039.204224,237.551865 1031.662598,245.646790 
M1004.868469,256.750610 
	C1004.934265,262.315613 1004.756653,267.902130 1005.245422,273.429749 
	C1005.360596,274.732574 1007.788513,276.917023 1009.036377,276.838959 
	C1013.579651,276.554749 1018.331482,276.154297 1022.522827,274.543732 
	C1028.093506,272.403168 1029.561401,263.156250 1025.622559,258.736115 
	C1022.268860,254.972687 1009.908752,253.304062 1004.868469,256.750610 
M1013.146729,247.772751 
	C1016.654114,245.785507 1020.745178,244.363052 1023.434326,241.584076 
	C1024.881714,240.088333 1024.931885,235.760178 1023.843994,233.601013 
	C1021.609863,229.166656 1007.561523,228.477905 1004.209656,232.148712 
	C1003.775757,232.623856 1003.391602,233.212524 1003.185608,233.817139 
	C1001.139038,239.823593 1006.028137,247.299911 1013.146729,247.772751 
z"/>
<path fill="#212927" opacity="1.000000" stroke="none" 
	d="
M578.244629,258.913177 
	C584.025452,268.628082 577.237488,282.177704 565.815247,284.332275 
	C564.349670,284.608704 562.856201,284.888580 561.373779,284.898926 
	C553.419373,284.954498 545.464355,284.925171 536.153931,284.925171 
	C536.153931,265.003784 536.134094,245.291718 536.171265,225.579742 
	C536.178345,221.808411 538.693481,220.060059 542.001648,220.150925 
	C549.462708,220.355865 556.961426,220.605408 564.351196,221.560730 
	C570.769470,222.390472 575.036194,226.520798 577.124878,232.712311 
	C579.152588,238.722977 576.870728,243.375656 572.482422,247.386047 
	C571.522339,248.263504 570.741882,249.337463 569.801697,250.408661 
	C572.666016,253.230652 575.377991,255.902557 578.244629,258.913177 
M561.153564,256.059570 
	C547.825745,251.831833 545.754456,253.400894 546.058228,267.494629 
	C546.242249,276.033783 549.227051,278.380707 557.660034,276.573700 
	C558.793274,276.330872 560.116089,276.209564 560.966492,275.541962 
	C564.633179,272.663452 570.442932,270.074280 571.181946,266.494141 
	C572.221008,261.459991 566.618652,258.365875 561.153564,256.059570 
M565.783813,233.927063 
	C561.356079,229.271988 555.802673,229.362686 550.186951,230.555359 
	C548.823303,230.844971 547.314087,232.294556 546.635925,233.605911 
	C544.899902,236.962982 546.482300,244.474716 549.036194,246.646332 
	C551.500977,248.742188 558.175842,248.198700 562.162415,245.544449 
	C566.151245,242.888657 568.198853,239.507782 565.783813,233.927063 
z"/>
<path fill="#232B29" opacity="1.000000" stroke="none" 
	d="
M917.767822,285.774048 
	C907.948608,284.638458 907.425110,283.946472 908.148071,274.550018 
	C908.491882,270.080750 908.689026,265.598145 908.856873,261.118011 
	C908.989014,257.592896 907.073242,255.976776 903.658325,255.973633 
	C895.686340,255.966293 887.714355,255.971283 878.356995,255.971283 
	C878.356995,263.866241 878.455261,272.253784 878.269775,280.635101 
	C878.234863,282.212036 877.507568,284.405273 876.340149,285.204712 
	C873.096191,287.425964 868.357300,285.127472 868.306885,281.163818 
	C868.072388,262.715546 868.099426,244.263458 868.119934,225.812851 
	C868.124207,221.939438 870.500732,220.139679 874.212219,220.083389 
	C878.556335,220.017471 878.720337,223.119400 878.722107,226.275513 
	C878.725891,232.929062 878.723267,239.582611 878.723267,246.909729 
	C887.934998,246.909729 896.791870,247.013138 905.643921,246.850281 
	C908.510803,246.797516 909.520264,244.695953 909.278076,241.974182 
	C908.939209,238.165848 908.484253,234.362213 908.311523,230.546036 
	C908.043091,224.616470 910.718262,220.715485 915.325745,220.146576 
	C918.148376,219.798080 920.236694,220.403397 920.205383,223.987076 
	C920.035400,243.445114 919.971985,262.904144 919.757874,282.361572 
	C919.745483,283.484955 918.731201,284.597321 917.767822,285.774048 
z"/>
<path fill="#222927" opacity="1.000000" stroke="none" 
	d="
M1060.178711,279.051086 
	C1063.479614,271.408356 1065.827148,263.570190 1070.097290,256.977142 
	C1076.252563,247.473404 1077.642822,235.957672 1084.077759,226.783829 
	C1085.922363,224.154266 1089.987915,219.979156 1091.098633,220.516388 
	C1094.522095,222.172287 1098.096924,225.262985 1099.673828,228.688828 
	C1106.783203,244.134262 1113.221191,259.888641 1119.911011,275.527527 
	C1120.302368,276.442352 1120.748657,277.337036 1121.222046,278.212677 
	C1122.682373,280.914185 1122.879639,283.822083 1119.697876,284.847412 
	C1117.646484,285.508484 1113.913696,285.183655 1112.832520,283.808502 
	C1109.913818,280.095764 1107.841309,275.665955 1105.771729,271.358002 
	C1104.637207,268.996552 1103.492798,267.738495 1100.606201,267.933472 
	C1095.630859,268.269562 1090.618652,268.014008 1085.629517,268.203583 
	C1078.154907,268.487640 1073.216675,271.941254 1071.217163,279.507538 
	C1070.637573,281.700897 1069.071899,284.330505 1067.206055,285.276978 
	C1065.579224,286.102203 1062.628418,285.314178 1060.790649,284.290741 
	C1059.919800,283.805695 1060.281372,281.107483 1060.178711,279.051086 
M1084.177856,246.870392 
	C1083.431519,249.230789 1082.142090,251.587372 1082.125488,253.952927 
	C1082.114014,255.591400 1083.626343,258.426941 1084.859619,258.667511 
	C1088.707764,259.418182 1092.757690,259.433167 1096.708618,259.259491 
	C1099.608154,259.131989 1100.839600,256.971954 1099.861084,254.296524 
	C1097.619751,248.168945 1095.104858,242.141418 1092.614380,235.854370 
	C1087.728882,237.789047 1086.331665,242.149918 1084.177856,246.870392 
z"/>
<path fill="#232B29" opacity="1.000000" stroke="none" 
	d="
M800.843140,237.833420 
	C803.396973,232.754776 805.521362,227.852676 808.289551,223.345978 
	C811.261475,218.507355 816.501038,218.839355 818.757690,223.936111 
	C826.399292,241.195236 833.854980,258.536682 841.381714,275.846619 
	C841.580322,276.303284 841.877075,276.742706 841.960999,277.219574 
	C842.447693,279.984161 844.989624,283.286957 841.348633,285.283508 
	C837.616150,287.330231 835.025879,284.292786 833.150391,281.648773 
	C831.365906,279.132996 830.634216,275.879730 828.899353,273.316437 
	C827.559814,271.337250 825.486084,268.644104 823.562134,268.491241 
	C816.969116,267.967590 810.293213,268.292480 803.658630,268.546234 
	C798.209839,268.754608 795.955627,272.441406 795.057739,277.291107 
	C794.177124,282.047882 791.634033,285.152588 786.587952,285.600281 
	C783.265869,285.895020 781.275513,284.476196 782.177856,280.944611 
	C782.992676,277.755341 784.095337,274.598663 785.440979,271.593231 
	C790.443726,260.419800 795.599121,249.314743 800.843140,237.833420 
M815.456848,237.119827 
	C814.641357,237.029678 813.565308,236.556503 813.049805,236.907242 
	C806.214844,241.557816 806.524780,250.260452 802.288635,256.438110 
	C802.129578,256.670013 804.098022,259.224976 805.145142,259.276581 
	C810.995789,259.564758 816.867981,259.415131 823.854187,259.415131 
	C820.859314,251.365784 818.335144,244.581421 815.456848,237.119827 
z"/>
<path fill="#232B29" opacity="1.000000" stroke="none" 
	d="
M719.196655,238.795105 
	C720.266541,224.703049 727.767944,217.684723 741.343506,218.426025 
	C746.043030,218.682648 750.820312,220.048950 755.232178,221.759369 
	C756.929077,222.417236 759.146423,226.263809 758.601990,227.219711 
	C757.501282,229.152466 754.776855,230.967667 752.533447,231.232056 
	C749.905029,231.541779 747.010315,230.344467 744.348694,229.450790 
	C739.869202,227.946732 735.934387,228.534729 732.154419,231.424454 
	C727.184204,235.224045 726.637817,237.491760 731.477478,241.616699 
	C734.916870,244.548172 739.195251,246.725647 743.421753,248.448135 
	C749.431641,250.897446 754.879822,253.769806 758.092102,259.701263 
	C763.025024,268.810028 757.131287,282.441071 746.890259,284.049561 
	C739.738525,285.172882 732.307068,284.889496 725.021301,284.636993 
	C721.040833,284.498993 717.790283,279.181976 719.105164,275.416534 
	C719.524475,274.215759 721.890015,272.717316 723.068298,272.938171 
	C726.932983,273.662659 730.750610,274.890320 734.417114,276.349609 
	C738.170532,277.843475 741.444031,277.609589 744.701660,275.222076 
	C750.401306,271.044800 750.515259,265.240692 744.543335,261.496979 
	C739.066406,258.063538 733.232910,255.204086 727.629456,251.965454 
	C722.742981,249.141220 719.582764,245.074814 719.196655,238.795105 
z"/>
<path fill="#252C2A" opacity="1.000000" stroke="none" 
	d="
M646.513306,239.507492 
	C643.149170,244.080200 639.514832,248.105255 637.031738,252.746262 
	C635.235168,256.104187 634.621582,260.233307 634.101929,264.101990 
	C633.416809,269.202209 633.660828,274.435974 632.841431,279.505005 
	C632.522400,281.478912 630.684326,284.323334 629.033508,284.731903 
	C625.668213,285.564758 625.346497,282.278900 625.031433,279.801941 
	C624.716675,277.327637 624.345825,274.818176 624.439941,272.340912 
	C625.100159,254.977798 614.581482,242.980927 604.646851,230.678329 
	C603.748047,229.565308 602.298828,228.240494 602.388000,227.115768 
	C602.607727,224.344803 603.574585,221.633087 604.241089,218.897552 
	C606.706665,219.777802 610.002686,219.948700 611.477417,221.675293 
	C615.431396,226.304688 618.677307,231.552490 622.063110,236.648575 
	C624.162048,239.807846 626.003235,243.138382 628.667847,247.568695 
	C631.098389,244.056610 632.997986,241.339050 634.869324,238.602188 
	C638.695496,233.006424 642.174561,227.122391 646.505249,221.950531 
	C647.999451,220.166183 652.329834,218.723190 654.078979,219.623138 
	C657.383728,221.323593 655.716614,224.696899 654.031921,227.371841 
	C651.559753,231.297073 649.164307,235.270660 646.513306,239.507492 
z"/>
<path fill="#222A28" opacity="1.000000" stroke="none" 
	d="
M951.477539,284.271332 
	C950.698975,283.347015 950.024292,282.531219 950.035706,281.725128 
	C950.287598,263.913879 950.597839,246.103363 950.961365,228.294022 
	C950.991272,226.828400 950.977661,224.712357 951.856506,224.041901 
	C954.027039,222.386032 956.612976,220.640106 959.201294,220.325928 
	C962.497559,219.925827 962.205078,223.081573 962.195068,225.393875 
	C962.114380,244.038879 961.984619,262.683746 961.955505,281.328796 
	C961.949646,285.101135 960.417236,286.566437 956.717163,285.605621 
	C955.114197,285.189331 953.506531,284.790924 951.477539,284.271332 
z"/>
<path fill="#FDFDFD" opacity="1.000000" stroke="none" 
	d="
M376.661926,121.236633 
	C376.045868,111.031700 379.295502,102.732742 387.373962,97.067444 
	C393.259644,92.939919 399.776703,89.712715 407.146362,85.424179 
	C407.961853,89.516006 408.593536,92.148262 408.985504,94.815758 
	C409.322968,97.112152 409.078278,99.524185 409.623535,101.754921 
	C412.569763,113.808456 407.466827,122.214226 398.243530,129.441391 
	C388.443939,137.120132 379.056885,133.956390 376.661926,121.236633 
z"/>
<path fill="#FDFEFE" opacity="1.000000" stroke="none" 
	d="
M848.081421,132.062073 
	C840.846741,126.103386 837.970032,118.378899 836.570740,109.766258 
	C834.202087,95.186882 833.629761,80.590813 837.085022,66.188545 
	C838.158020,61.715797 840.811768,57.296627 843.759216,53.682640 
	C847.345581,49.285149 852.309204,49.215607 857.195312,52.273094 
	C865.373718,57.390789 870.280029,65.007477 870.711243,74.378517 
	C871.420471,89.795990 871.311279,105.274567 870.899292,120.710098 
	C870.699097,128.210403 865.367737,134.775421 859.463013,135.134186 
	C855.827332,135.355072 852.055359,133.331787 848.081421,132.062073 
z"/>
<path fill="#FDFDFD" opacity="1.000000" stroke="none" 
	d="
M539.400635,99.368805 
	C539.874512,88.332832 539.890808,77.672409 541.182373,67.168777 
	C542.365662,57.545410 548.272400,50.738007 555.164368,50.531853 
	C563.608582,50.279263 568.449036,56.427876 571.428955,63.156570 
	C573.997742,68.956764 575.618835,75.478279 576.158997,81.808884 
	C577.117432,93.040504 577.575134,104.404839 576.943542,115.640648 
	C576.666321,120.572365 573.944214,125.844048 571.017212,130.045166 
	C565.728271,137.636215 557.537842,137.697128 551.029236,131.003784 
	C543.665588,123.431023 541.680786,113.652397 539.995056,103.768547 
	C539.771851,102.459793 539.661560,101.131790 539.400635,99.368805 
z"/>
<path fill="#FDFDFD" opacity="1.000000" stroke="none" 
	d="
M1081.955688,86.285599 
	C1075.815063,86.205711 1070.163574,86.216003 1064.520752,85.998619 
	C1060.339722,85.837555 1058.510132,83.673233 1059.530884,79.392197 
	C1061.505981,71.110359 1064.025146,63.073475 1069.537842,56.335339 
	C1076.969849,47.251202 1087.290405,48.259407 1091.957153,59.037231 
	C1094.895020,65.821793 1096.571899,73.160622 1098.687622,80.288506 
	C1099.514893,83.075989 1098.315186,84.809158 1095.339111,85.094978 
	C1091.044067,85.507484 1086.745483,85.885406 1081.955688,86.285599 
z"/>
<path fill="#FBFBFB" opacity="1.000000" stroke="none" 
	d="
M1005.033264,256.364685 
	C1009.908752,253.304062 1022.268860,254.972687 1025.622559,258.736115 
	C1029.561401,263.156250 1028.093506,272.403168 1022.522827,274.543732 
	C1018.331482,276.154297 1013.579651,276.554749 1009.036377,276.838959 
	C1007.788513,276.917023 1005.360596,274.732574 1005.245422,273.429749 
	C1004.756653,267.902130 1004.934265,262.315613 1005.033264,256.364685 
z"/>
<path fill="#FBFBFB" opacity="1.000000" stroke="none" 
	d="
M1012.751526,247.831039 
	C1006.028137,247.299911 1001.139038,239.823593 1003.185608,233.817139 
	C1003.391602,233.212524 1003.775757,232.623856 1004.209656,232.148712 
	C1007.561523,228.477905 1021.609863,229.166656 1023.843994,233.601013 
	C1024.931885,235.760178 1024.881714,240.088333 1023.434326,241.584076 
	C1020.745178,244.363052 1016.654114,245.785507 1012.751526,247.831039 
z"/>
<path fill="#FBFBFB" opacity="1.000000" stroke="none" 
	d="
M561.515991,256.200073 
	C566.618652,258.365875 572.221008,261.459991 571.181946,266.494141 
	C570.442932,270.074280 564.633179,272.663452 560.966492,275.541962 
	C560.116089,276.209564 558.793274,276.330872 557.660034,276.573700 
	C549.227051,278.380707 546.242249,276.033783 546.058228,267.494629 
	C545.754456,253.400894 547.825745,251.831833 561.515991,256.200073 
z"/>
<path fill="#FBFBFB" opacity="1.000000" stroke="none" 
	d="
M565.943604,234.284271 
	C568.198853,239.507782 566.151245,242.888657 562.162415,245.544449 
	C558.175842,248.198700 551.500977,248.742188 549.036194,246.646332 
	C546.482300,244.474716 544.899902,236.962982 546.635925,233.605911 
	C547.314087,232.294556 548.823303,230.844971 550.186951,230.555359 
	C555.802673,229.362686 561.356079,229.271988 565.943604,234.284271 
z"/>
<path fill="#FBFBFB" opacity="1.000000" stroke="none" 
	d="
M1084.342285,246.519333 
	C1086.331665,242.149918 1087.728882,237.789047 1092.614380,235.854370 
	C1095.104858,242.141418 1097.619751,248.168945 1099.861084,254.296524 
	C1100.839600,256.971954 1099.608154,259.131989 1096.708618,259.259491 
	C1092.757690,259.433167 1088.707764,259.418182 1084.859619,258.667511 
	C1083.626343,258.426941 1082.114014,255.591400 1082.125488,253.952927 
	C1082.142090,251.587372 1083.431519,249.230789 1084.342285,246.519333 
z"/>
<path fill="#FBFBFB" opacity="1.000000" stroke="none" 
	d="
M815.633911,237.458435 
	C818.335144,244.581421 820.859314,251.365784 823.854187,259.415131 
	C816.867981,259.415131 810.995789,259.564758 805.145142,259.276581 
	C804.098022,259.224976 802.129578,256.670013 802.288635,256.438110 
	C806.524780,250.260452 806.214844,241.557816 813.049805,236.907242 
	C813.565308,236.556503 814.641357,237.029678 815.633911,237.458435 
z"/>
</svg>